<svg xmlns="http://www.w3.org/2000/svg" viewBox="0 0 669.2 123.04"><defs><style>.cls-1,.cls-2{fill:#14feff;}.cls-2{opacity:0.1;}</style></defs><g id="Layer_2" data-name="Layer 2"><g id="_Layer_" data-name="&lt;Layer&gt;"><path class="cls-1" d="M620.48,96.78H48.72L24.23,72.29,48.72,47.8H620.48L645,72.29Zm-571-1.92H619.68l22.58-22.57L619.68,49.72H49.52L26.94,72.29Z"/><polygon class="cls-1" points="116.27 32.77 133.99 50.49 45.04 50.49 62.76 32.77 116.27 32.77"/><polygon class="cls-1" points="606.4 32.77 624.12 50.49 534.7 50.49 552.42 32.77 606.4 32.77"/><polygon class="cls-1" points="158.1 95.82 183.86 121.58 227.47 121.58 237.56 111.5 431.64 111.5 441.73 121.58 485.34 121.58 511.1 95.82 158.1 95.82"/><polygon class="cls-2" points="124.45 16.87 140.35 32.77 528.85 32.77 544.75 16.87 528.85 0.96 140.35 0.96 124.45 16.87"/><path class="cls-1" d="M529.24,33.73H140L123.09,16.87,140,0H529.24l16.87,16.87ZM140.75,31.81h387.7l14.94-14.94L528.45,1.92H140.75l-14.94,15Z"/><polygon class="cls-1" points="160.37 121.86 153.06 114.55 43.82 114.55 0 71.81 55.39 16.41 126.29 16.41 126.29 18.33 56.19 18.33 2.73 71.79 44.6 112.63 153.85 112.63 161.72 120.5 160.37 121.86"/><polygon class="cls-1" points="509.67 123.04 508.31 121.68 517.37 112.63 624.6 112.63 666.47 71.79 613.01 18.33 542.91 18.33 542.91 16.41 613.81 16.41 669.2 71.81 625.38 114.55 518.17 114.55 509.67 123.04"/></g></g></svg>